:SAMPLES-PER-SECOND 30
:FULLY-SPECIFIED
:DEGREES
111
root  -46.6219 40.6502 -7.90282 6.80573 -80.2861 -5.44453
RightUpLeg  -16.3565 -13.3016 -7.46556
RightLeg  33.6603 -8.85981 -6.53227
RightFoot  -0.20921 -0.682999 6.98514
RightToes  -1.74624e-010 0 -3.6325e-017
Spine  25.2486 -0.358791 -9.37244
Spine1  3.46283 -2.51791 0.602603
HEad  -32.9476 -1.61733 8.86185
LeftShoulder1  7.17114 -12.3901 -38.9268
LeftArm  -29.7873 -7.44301 -14.1078
LeftForeArm  40.3296 -54.3883 -12.3342
LeftHand  -0.244104 0.0205437 5.32207
RightShoulder  6.46781 10.2555 40.82
RightArm  -9.99028 -0.283588 29.1026
RightForeArm  59.0672 66.8333 19.9271
RightHand  -0.0788065 5.05799 -1.18202
LeftUpLeg  -15.8987 12.4386 0.643055
LeftLeg  11.0526 11.259 -3.45335
LeftFoot  3.5361 -0.969095 7.24636
LeftToes  8.00323e-011 -1.37366e-010 4.43692e-012
112
root  -46.04 40.6844 -7.73705 6.75978 -82.3974 -5.61966
RightUpLeg  -14.1392 -13.1349 -8.10559
RightLeg  38.5107 -9.55504 -8.30704
RightFoot  -1.38299 -0.565962 6.38628
RightToes  -1.74624e-010 0 -3.6325e-017
Spine  24.0638 -0.691128 -8.90113
Spine1  3.78466 -2.64896 0.475827
HEad  -32.4453 -0.132498 8.16809
LeftShoulder1  7.27855 -12.1873 -40.1306
LeftArm  -26.157 -3.10757 -14.6715
LeftForeArm  38.848 -49.3536 -10.1291
LeftHand  -0.244104 0.0205437 5.32207
RightShoulder  6.28377 9.99296 40.3967
RightArm  -12.7282 -1.65705 28.8515
RightForeArm  55.0317 68.15 22.0956
RightHand  -0.202963 4.27766 -2.70876
LeftUpLeg  -14.8849 9.62017 1.44348
LeftLeg  8.25538 16.2396 -4.61836
LeftFoot  5.07414 -1.16578 7.85425
LeftToes  8.00323e-011 -1.37366e-010 4.43692e-012
113
root  -45.4433 40.6498 -7.62063 5.51292 -84.5916 -4.63597
RightUpLeg  -11.4864 -12.9465 -9.19057
RightLeg  41.5871 -8.64807 -8.40761
RightFoot  -2.36915 -0.506815 6.2468
RightToes  -1.74624e-010 0 -3.6325e-017
Spine  22.9286 -0.89023 -8.44268
Spine1  4.15995 -2.61553 0.221678
HEad  -31.979 1.13463 7.55801
LeftShoulder1  7.30246 -11.9088 -41.0645
LeftArm  -22.0758 1.13087 -16.2763
LeftForeArm  37.3452 -43.3318 -8.04874
LeftHand  -0.244104 0.0205437 5.32207
RightShoulder  6.10515 9.73552 39.9776
RightArm  -14.7637 -2.86508 28.795
RightForeArm  54.0192 69.7189 24.5956
RightHand  -0.283992 4.04484 -3.76025
LeftUpLeg  -14.4034 7.93094 1.702
LeftLeg  6.34492 20.1584 -5.37412
LeftFoot  6.26665 -1.35922 8.51263
LeftToes  8.00323e-011 -1.37366e-010 4.43692e-012
114
root  -44.8294 40.5648 -7.56482 -10.0121 -87.0556 10.7539
RightUpLeg  -8.89811 -12.3275 -10.5272
RightLeg  42.6255 -6.98033 -7.12488
RightFoot  -2.75832 -0.471929 6.03214
RightToes  -1.74624e-010 0 -3.6325e-017
Spine  21.5278 -0.920648 -8.20211
Spine1  4.8588 -2.40719 -0.155339
HEad  -31.5963 2.62479 6.99783
LeftShoulder1  7.25375 -11.5382 -41.853
LeftArm  -17.507 4.85124 -18.2688
LeftForeArm  35.7008 -36.2646 -6.09184
LeftHand  -0.244104 0.0205437 5.32207
RightShoulder  6.01232 9.53902 39.9616
RightArm  -15.9468 -3.57041 28.6235
RightForeArm  55.9376 71.3098 27.1551
RightHand  -0.336559 4.14959 -4.36747
LeftUpLeg  -14.3534 7.22973 1.7102
LeftLeg  4.9996 23.0752 -5.96873
LeftFoot  7.18632 -1.51139 8.97862
LeftToes  8.00323e-011 -1.37366e-010 4.43692e-012
115
root  -44.1775 40.4347 -7.57488 -29.1833 -89.8389 29.7576
RightUpLeg  -6.29549 -11.007 -11.7829
RightLeg  41.5906 -5.18501 -5.20491
RightFoot  -2.63402 -0.498299 6.27445
RightToes  -1.74624e-010 0 -3.6325e-017
Spine  20.0976 -0.861573 -8.07962
Spine1  5.86049 -2.102 -0.694708
HEad  -31.3835 4.47827 6.44427
LeftShoulder1  7.2234 -11.1315 -42.8996
LeftArm  -12.098 7.94354 -20.0029
LeftForeArm  33.3962 -28.6074 -4.33311
LeftHand  -0.244104 0.0205437 5.32207
RightShoulder  6.00182 9.40292 40.3441
RightArm  -16.1145 -3.55663 28.3468
RightForeArm  59.175 72.5707 29.2941
RightHand  -0.346053 4.28025 -4.43162
LeftUpLeg  -14.5784 7.33166 1.79146
LeftLeg  4.24846 25.6502 -6.44114
LeftFoot  7.92614 -1.58501 9.03317
LeftToes  8.00323e-011 -1.37366e-010 4.43692e-012
116
root  -43.4522 40.265 -7.64153 -148.153 -86.7078 148.259
RightUpLeg  -3.19851 -9.34823 -12.8564
RightLeg  38.4697 -3.36364 -3.1412
RightFoot  -3.39182 -0.612347 8.54717
RightToes  -1.74624e-010 0 -3.6325e-017
Spine  19.404 -0.720712 -7.73692
Spine1  6.25531 -1.72176 -1.32064
HEad  -31.0367 6.10265 5.73585
LeftShoulder1  7.42894 -11.0932 -44.308
LeftArm  -7.1266 11.4051 -21.4818
LeftForeArm  31.8341 -21.5914 -3.36975
LeftHand  -0.244104 0.0205437 5.32207
RightShoulder  5.93615 9.23351 40.4403
RightArm  -15.6241 -3.66187 28.5174
RightForeArm  63.669 73.6645 31.1669
RightHand  -0.258538 4.18389 -3.39768
LeftUpLeg  -14.901 7.90529 2.08432
LeftLeg  4.19565 28.4187 -6.6192
LeftFoot  8.5427 -1.61994 8.92406
LeftToes  8.00323e-011 -1.37366e-010 4.43692e-012
117
root  -42.6486 40.0841 -7.76031 -163.385 -84.072 162.748
RightUpLeg  0.402535 -8.25907 -13.7663
RightLeg  33.486 -1.54954 -1.35662
RightFoot  -6.49164 -0.562399 12.4032
RightToes  -1.74624e-010 0 -3.6325e-017
Spine  19.3835 -0.557465 -7.12957
Spine1  6.09451 -1.34562 -1.84788
HEad  -30.5933 7.18694 4.95565
LeftShoulder1  7.76738 -11.4123 -45.3863
LeftArm  -6.99308 15.6381 -23.2793
LeftForeArm  35.0784 -16.0294 -4.1062
LeftHand  -0.244104 0.0205437 5.32207
RightShoulder  5.79825 8.97448 40.311
RightArm  -14.9558 -4.17021 29.0962
RightForeArm  69.4861 74.8349 33.3666
RightHand  -0.108326 4.01633 -1.61121
LeftUpLeg  -15.1006 8.52809 2.5909
LeftLeg  4.23341 30.797 -6.66672
LeftFoot  9.32904 -1.72351 9.11513
LeftToes  8.00323e-011 -1.37366e-010 4.43692e-012
118
root  -41.7748 39.9288 -7.93714 -167.453 -81.7038 165.993
RightUpLeg  3.67408 -8.35798 -14.2307
RightLeg  27.697 0.0976796 -0.169868
RightFoot  -11.1481 -0.111544 14.5186
RightToes  -1.74624e-010 0 -3.6325e-017
Spine  19.4718 -0.465695 -6.24577
Spine1  6.07468 -1.01774 -2.18888
HEad  -30.2275 8.07686 4.26004
LeftShoulder1  8.01427 -11.7534 -45.7982
LeftArm  -9.26966 19.9323 -25.689
LeftForeArm  39.1622 -12.2404 -4.54601
LeftHand  -0.244104 0.0205437 5.32207
RightShoulder  5.72381 8.7634 40.4925
RightArm  -14.3097 -4.68462 29.5633
RightForeArm  74.1627 75.8172 35.6713
RightHand  -0.0400269 4.22549 -0.759836
LeftUpLeg  -14.9742 9.13678 3.41357
LeftLeg  3.4739 32.1915 -7.06806
LeftFoot  10.7324 -1.92274 9.49598
LeftToes  8.00323e-011 -1.37366e-010 4.43692e-012
119
root  -40.8148 39.8231 -8.15499 -173.154 -79.5094 170.869
RightUpLeg  5.49265 -9.18634 -13.5697
RightLeg  23.1146 1.16884 0.338599
RightFoot  -14.9326 0.292152 12.6851
RightToes  -1.74624e-010 0 -3.6325e-017
Spine  19.5582 -0.515645 -4.69917
Spine1  6.64466 -0.745344 -2.31924
HEad  -30.2512 9.16532 3.36594
LeftShoulder1  8.08207 -11.7613 -46.1735
LeftArm  -11.0507 23.2082 -28.0111
LeftForeArm  40.3561 -10.1894 -4.33598
LeftHand  -0.244104 0.0205437 5.32207
RightShoulder  5.74113 8.69655 40.8664
RightArm  -13.5438 -4.57052 29.9139
RightForeArm  74.4612 76.0234 36.4037
RightHand  -0.113756 4.81354 -1.58129
LeftUpLeg  -14.3476 10.0071 4.90997
LeftLeg  1.41816 33.4612 -8.14064
LeftFoot  12.9133 -2.17534 9.72631
LeftToes  8.00323e-011 -1.37366e-010 4.43692e-012
120
root  -39.7511 39.7375 -8.37743 179.22 -77.2942 177.701
RightUpLeg  5.33098 -9.46406 -11.3802
RightLeg  21.3961 1.25051 0.324402
RightFoot  -16.7935 0.307579 8.76619
RightToes  -1.74624e-010 0 -3.6325e-017
Spine  19.9913 -0.739916 -2.0177
Spine1  7.22381 -0.470787 -2.57311
HEad  -30.4841 10.3262 2.16522
LeftShoulder1  8.08221 -11.5601 -46.8048
LeftArm  -12.0796 25.3962 -29.6143
LeftForeArm  39.3922 -9.50095 -4.09031
LeftHand  -0.244104 0.0205437 5.32207
RightShoulder  5.79641 8.77024 41.0249
RightArm  -12.521 -4.00673 30.3615
RightForeArm  70.8305 75.2427 34.4233
RightHand  -0.20837 5.14063 -2.60987
LeftUpLeg  -13.4161 11.2414 7.26813
LeftLeg  -1.47297 34.9361 -9.58247
LeftFoot  15.5355 -2.44132 9.7808
LeftToes  8.00323e-011 -1.37366e-010 4.43692e-012
121
root  -38.6242 39.642 -8.58922 172.06 -75.2158 -175.799
RightUpLeg  3.77302 -8.7407 -8.35712
RightLeg  22.098 0.778174 0.126579
RightFoot  -17.3865 0.198058 5.95021
RightToes  -1.74624e-010 0 -3.6325e-017
Spine  20.6827 -1.15597 1.33578
Spine1  7.32876 -0.268158 -3.02674
HEad  -30.4907 11.398 0.901956
LeftShoulder1  8.09744 -11.4788 -47.1542
LeftArm  -12.6252 26.9911 -30.8039
LeftForeArm  38.3024 -9.6317 -3.98688
LeftHand  -0.244104 0.0205437 5.32207
RightShoulder  5.81986 8.87407 40.8307
RightArm  -11.1617 -3.50601 30.8233
RightForeArm  66.9509 73.6692 30.5147
RightHand  -0.171359 4.66982 -2.25517
LeftUpLeg  -12.5462 12.3338 10.0483
LeftLeg  -4.2446 34.0002 -10.546
LeftFoot  18.5236 -2.44873 8.75359
LeftToes  8.00323e-011 -1.37366e-010 4.43692e-012
